<?xml version="1.0" encoding="utf-8"?>
<svg viewBox="-522.908 -361.567 1911.351 1069.268" width="1911.351" height="1069.268" xmlns="http://www.w3.org/2000/svg">
  <g transform="matrix(0.9980379939079285, 0, 0, 0.9980379939079285, -523.588134765625, -367.49676513671875)" style="">
    <defs>
      <rect id="SVGID_1_" width="1920" height="1080"/>
    </defs>
    <clipPath id="SVGID_2_">
      <rect width="1920" height="1080" style="overflow: visible;"/>
    </clipPath>
    <g class="st0" style="clip-path: url('#SVGID_2_');">
      <rect class="st1" width="2145.886" height="1521.451" style="fill: rgb(214, 165, 149);" transform="matrix(0.99999, 0.004414, 0, 1.00001, -31.896706, 1188.849731)"/>
      <g style="" transform="matrix(0.549652, 0, 0, 0.549652, 305.958069, 169.590057)">
        <g>
          <line class="st2" x1="-74.15" y1="127.25" x2="-74.15" y2="667.89" style="fill: rgb(98, 71, 50);"/>
          <rect x="-75.65" y="127.25" class="st2" width="3" height="540.64" style="fill: rgb(98, 71, 50);"/>
        </g>
        <g>
          <line class="st2" x1="2.99" y1="127.25" x2="10.99" y2="692.25" style="fill: rgb(98, 71, 50);"/>
          <rect x="5.49" y="127.22" transform="matrix(0.9999 -0.0142 0.0142 0.9999 -5.8005 0.1401)" class="st2" width="3" height="565.06" style="fill: rgb(98, 71, 50);"/>
        </g>
        <g>
          <line class="st2" x1="103.28" y1="127.25" x2="114.99" y2="732.25" style="fill: rgb(98, 71, 50);"/>
          <rect x="107.64" y="127.19" transform="matrix(0.9998 -0.0194 0.0194 0.9998 -8.2987 2.1932)" class="st2" width="3" height="605.11" style="fill: rgb(98, 71, 50);"/>
        </g>
        <g>
          <line class="st2" x1="181.99" y1="116.25" x2="196.99" y2="739.25" style="fill: rgb(98, 71, 50);"/>
          <rect x="187.99" y="116.16" transform="matrix(0.9997 -0.0241 0.0241 0.9997 -10.2411 4.685)" class="st2" width="3" height="623.18" style="fill: rgb(98, 71, 50);"/>
        </g>
        <g>
          <path class="st2" d="M275.15,309.11c3.84,128.14,3.84,255.14,6.84,383.14" style="fill: rgb(98, 71, 50);"/>
          <path class="st2" d="M271.71,116.25c-0.71,26,1.29,51,1.37,76.93" style="fill: rgb(98, 71, 50);"/>
          <path class="st2" d="M274.67,198.35l-1.47-82.12l-3,0.05l1.46,81.93C272.68,198.22,273.68,198.27,274.67,198.35z" style="fill: rgb(98, 71, 50);"/>
          <path class="st2" d="M273.59,305.98l6.9,386.3l3-0.05l-6.9-386.56C275.59,305.79,274.59,305.9,273.59,305.98z" style="fill: rgb(98, 71, 50);"/>
        </g>
        <g>
          <path class="st2" d="M341.99,111.25c2,165,4,330,6.09,494.71" style="fill: rgb(98, 71, 50);"/>
          <path class="st2" d="M349.66,611.63l-6.16-500.4l-3,0.04l6.21,504.17C347.63,614.13,348.61,612.86,349.66,611.63z" style="fill: rgb(98, 71, 50);"/>
        </g>
        <g>
          <path class="st2" d="M431.14,609.23V436.52c-0.09,57.67-0.12,115.04-0.1,172.61C431.07,609.16,431.1,609.2,431.14,609.23z" style="fill: rgb(98, 71, 50);"/>
          <path class="st2" d="M431.14,322.64V111.25c-0.12,70.41-0.13,140.83-0.06,211.42C431.09,322.66,431.12,322.65,431.14,322.64z" style="fill: rgb(98, 71, 50);"/>
          <path class="st2" d="M432.64,321.85v-210.6h-3v212.22C430.62,322.9,431.62,322.35,432.64,321.85z" style="fill: rgb(98, 71, 50);"/>
          <path class="st2" d="M432.64,610.92V426.44c-1.33-2.85-2.31-5.85-3-8.92v190.13C430.68,608.7,431.67,609.8,432.64,610.92z" style="fill: rgb(98, 71, 50);"/>
        </g>
        <g>
          <line class="st2" x1="-145.01" y1="162.25" x2="470.99" y2="162.25" style="fill: rgb(98, 71, 50);"/>
          <rect x="-145.01" y="160.75" class="st2" width="616" height="3" style="fill: rgb(98, 71, 50);"/>
        </g>
        <g>
          <path class="st2" d="M329.14,251.25c48.85,0,97.85,0,146.99,0" style="fill: rgb(98, 71, 50);"/>
          <path class="st2" d="M-172.01,251.25c128,0,255,0,382.92,0" style="fill: rgb(98, 71, 50);"/>
          <path class="st2" d="M323.88,249.75c0.07,1,0.13,2,0.16,3h152.1v-3H323.88z" style="fill: rgb(98, 71, 50);"/>
          <path class="st2" d="M216.07,251.24c-0.01-0.49,0-0.99,0.01-1.49h-388.09v3h388.15C216.12,252.25,216.09,251.74,216.07,251.24z" style="fill: rgb(98, 71, 50);"/>
        </g>
        <g>
          <path class="st2" d="M-210.01,336.25c206,0,412,0,617.89,0" style="fill: rgb(98, 71, 50);"/>
          <path class="st2" d="M416.12,334.75h-626.13v3H413.8C414.55,336.72,415.32,335.71,416.12,334.75z" style="fill: rgb(98, 71, 50);"/>
        </g>
        <g>
          <path class="st2" d="M420.59,409.41l-391.03-1.57c130.32,0.69,260.62,1.46,391.04,1.58&#10;&#9;&#9;&#9;&#9;&#9;C420.59,409.42,420.59,409.42,420.59,409.41z" style="fill: rgb(98, 71, 50);"/>
          <path class="st2" d="M29.56,407.84c-84.26-0.44-168.54-0.85-252.85-1.02L29.56,407.84z" style="fill: rgb(98, 71, 50);"/>
          <path class="st2" d="M418.92,407.91l-642.2-2.58l-0.01,3l645.67,2.6C421.18,409.96,420.04,408.95,418.92,407.91z" style="fill: rgb(98, 71, 50);"/>
        </g>
        <g>
          <path class="st2" d="M-275.01,502.25c246-5,493-12,738.86-16.86" style="fill: rgb(98, 71, 50);"/>
          <path class="st2" d="M469.71,483.75l-744.75,17l0.07,3l743.59-16.97C468.93,485.76,469.3,484.75,469.71,483.75z" style="fill: rgb(98, 71, 50);"/>
        </g>
        <g>
          <line class="st2" x1="-329.01" y1="576.25" x2="516.99" y2="568.25" style="fill: rgb(98, 71, 50);"/>
          <rect x="-329.03" y="570.75" transform="matrix(1 -9.439684e-03 9.439684e-03 1 -5.3977 0.9128)" class="st2" width="846.04" height="3" style="fill: rgb(98, 71, 50);"/>
        </g>
        <g>
          <path class="st2" d="M469.7,641.25c16.29,0,31.29,0,47.29,0" style="fill: rgb(98, 71, 50);"/>
          <path class="st2" d="M-452.01,641.25c262,0,524,0,786.4,0" style="fill: rgb(98, 71, 50);"/>
          <path class="st2" d="M463.32,639.75c0.14,0.21,0.28,0.42,0.41,0.63c0.48,0.78,0.93,1.57,1.36,2.37h51.9v-3H463.32z" style="fill: rgb(98, 71, 50);"/>
          <path class="st2" d="M338.11,639.75h-790.11v3h789.86C337.92,641.75,338,640.75,338.11,639.75z" style="fill: rgb(98, 71, 50);"/>
        </g>
      </g>
      <path class="st3" d="M -29.591 -87.754 C -29.591 -87.754 25.644 -93.201 85.362 37.862 C 145.08 168.926 253.246 45.977 327.989 140.074 C 402.731 234.171 378.808 307.645 331.104 328.92 C 283.398 350.194 0.794 265.839 0.794 265.839 L -58.888 7.871 L -29.591 -87.754 Z" style="fill: rgb(149, 81, 81); transform-box: fill-box; transform-origin: 50% 50%;" transform="matrix(0.261684, 0.965154, -0.965154, 0.261684, -0.000034, 0.000026)"/>
      <path class="st4" d="M -150.54 347.65 C -156.673 328.988 -159.494 305.32 -158.965 276.779 C -158.215 236.354 -150.958 201.071 -150.645 199.597 L -130.89 203.714 C -130.958 204.058 -138.11 238.867 -138.792 277.442 C -139.155 297.898 -137.742 321.984 -131.345 341.437 C -127.16 354.188 -120.838 364.941 -111.467 371.393 C -102.232 377.758 -90.582 379.608 -75.853 377.052 C -57.923 373.93 -36.055 364.185 -10.862 348.067 C 46.933 311.09 89.11 293.356 121.861 292.25 C 152.602 291.219 170.605 305.056 186.489 317.277 C 203.381 330.261 217.968 341.475 247.628 336.922 C 262.596 334.623 274.455 327.238 283.887 314.328 C 321.382 263.008 303.74 147.915 303.556 146.753 L 323.495 143.601 C 323.692 144.854 328.362 174.778 328.042 212.04 C 327.605 263.088 318.236 301.504 300.194 326.218 C 287.617 343.447 270.959 353.77 250.688 356.88 C 212.505 362.74 192.148 347.098 174.187 333.284 C 174.187 333.284 146.04 311.643 122.53 312.429 C 93.952 313.395 53.871 330.617 0.002 365.082 C -27.471 382.655 -51.834 393.378 -72.419 396.948 C -92.333 400.402 -109.329 397.397 -122.94 388.014 C -135.302 379.479 -144.513 365.985 -150.54 347.65 Z" style="fill: rgb(105, 48, 48); transform-box: fill-box; transform-origin: 50% 50%;" transform="matrix(0.257889, -0.966175, 0.966175, 0.257889, -0.000019, -0.000052)"/>
      <path class="st4" d="M 1936.39 739.306 C 1936.39 739.306 1783.945 803.611 1717.744 800.329 C 1651.542 797.046 1499.708 915.156 1571.374 1057.539 C 1643.04 1199.923 1952.963 1247.171 1952.963 1247.171 L 1936.39 739.306 Z" style="fill: rgb(105, 48, 48);"/>
      <path class="st5" d="M 392.1 1083.62 C 392.1 1077.631 390.202 964.998 526.883 960.435 C 663.563 955.872 688.624 1029.441 835.17 887.148 C 981.715 744.854 1362.526 1164.316 1362.526 1164.316 L 392.1 1083.62 Z" style="fill: rgb(105, 48, 48);"/>
      <path class="st6" d="M 1229.54 1197.082 L 1226.347 1196.806 L 194.146 1108.106 L 194.146 1106.812 C 194.121 1098.065 195.334 1067.206 212.017 1037.321 C 222.374 1018.761 236.824 1003.794 254.956 992.839 C 277.38 979.29 305.571 971.842 338.735 970.699 C 381.299 969.227 413.593 975.074 442.088 980.232 C 510.355 992.584 555.454 1000.741 665.13 890.698 C 687.591 868.164 716.573 857.16 751.32 857.96 C 793.447 858.94 844.741 877.322 903.764 912.587 C 950.858 940.723 1002.995 979.631 1058.741 1028.228 C 1153.602 1110.931 1227.004 1194.192 1227.735 1195.025 L 1229.54 1197.082 Z M 197.1 1106.054 C 196.797 1106.05 480.797 1130.523 750.09 1153.686 C 811.237 1158.946 871.629 1164.138 927.763 1168.961 C 939.51 1169.97 951.069 1170.964 962.412 1171.938 C 1111.203 1184.719 1222.365 1194.239 1223.457 1194.252 C 1211.534 1180.903 1142.942 1105.085 1056.508 1029.732 C 1000.898 981.249 948.894 942.445 901.946 914.395 C 843.427 879.433 792.72 861.219 751.223 860.25 C 717.483 859.476 689.303 870.183 667.464 892.1 C 615.525 944.21 575.911 972.426 538.998 983.593 C 525.421 987.702 512.599 989.341 499.944 989.437 C 497.752 989.453 495.566 989.423 493.382 989.352 C 476.426 988.801 459.583 985.753 441.416 982.467 C 413.107 977.346 381.025 971.544 338.869 972.995 C 205.101 977.612 197.195 1082.881 197.1 1106.054 Z" style="fill: rgb(104, 71, 48); transform-box: fill-box; transform-origin: 50% 50%;" transform="matrix(0.999875, -0.01583, 0.01583, 0.999875, 0.000002, -0.000001)"/>
      <rect class="st7" width="1920" height="1080" style="fill: none;"/>
      <g transform="matrix(0.849665, 0, 0, 0.724536, 265.40976, 146.442963)" style="">
        <g>
          <g>
            <path class="st4" d="M1312.72,146.16c-10.98,17.63-30.07,27.73-50.35,32.06c-20.28,4.33-41.94,3.42-63.37,2.41&#10;&#9;&#9;&#9;&#9;&#9;&#9;c-21.44-1.01-43.09-2.08-63.47,1.95c-25.92,5.12-49.17,18.61-66.14,38.38c7.63-22.77,29.55-34.61,50.78-43.2&#10;&#9;&#9;&#9;&#9;&#9;&#9;c59.76-24.21,142.56-57.21,193.19-33.27" style="fill: rgb(149, 81, 81);"/>
          </g>
          <g>
            <path class="st4" d="M1328.96,129c-19.9,55.56-15.9,133.17,3.59,196.23c6.21,20.1,15.12,39.37,20.1,59.8&#10;&#9;&#9;&#9;&#9;&#9;&#9;c4.98,20.43,5.7,42.9-4.02,61.55c15.27-10.98,22.78-30.18,23.86-48.88c1.08-18.69-3.44-37.22-8.03-55.39&#10;&#9;&#9;&#9;&#9;&#9;&#9;c-4.6-18.17-9.34-36.61-8.72-55.32c0.59-17.9,6.06-35.28,8.02-53.08c4.23-38.43-5.45-79.85-31.67-108.49" style="fill: rgb(149, 81, 81);"/>
          </g>
          <g>
            <path class="st4" d="M1232.33,266.14c-22.24,0.17-44.07,11.65-56.7,29.82c-12.33,17.74-15.63,40.06-24.65,59.66&#10;&#9;&#9;&#9;&#9;&#9;&#9;c-12.93,28.08-38.27,50.24-67.96,59.43c33.59,1.98,67.6-15.5,85.34-43.85c9.49-15.17,14.38-32.68,22.03-48.85&#10;&#9;&#9;&#9;&#9;&#9;&#9;c9.96-21.04,24.69-39.82,42.8-54.55" style="fill: rgb(149, 81, 81);"/>
          </g>
          <g>
            <path class="st4" d="M1231.21,270.08c-15.88,10.56-24.24,29.83-25.56,48.77c-1.32,18.94,3.51,37.77,9.35,55.87&#10;&#9;&#9;&#9;&#9;&#9;&#9;c5.83,18.09,12.73,35.98,15.74,54.74c3.01,18.76,1.81,38.89-7.77,55.31c15.89-25.55,21.24-57.36,14.59-86.69&#10;&#9;&#9;&#9;&#9;&#9;&#9;c-3.66-16.14-10.77-31.41-13.7-47.7c-4.86-26.99,2.02-54.53,8.86-81.08" style="fill: rgb(149, 81, 81);"/>
          </g>
          <g>
            <path class="st4" d="M1424.87,47.48c-18.78,42.6-3.11,93.37,14.31,137.59c11.64,29.55,28.96,56.49,44.21,84.38&#10;&#9;&#9;&#9;&#9;&#9;&#9;c15.25,27.89,28.7,57.57,31.51,89.16c1.21-39.74,2.19-80.79-12.67-117.73c-6.96-17.3-17.23-33.19-23.61-50.71&#10;&#9;&#9;&#9;&#9;&#9;&#9;c-8.78-24.12-9.82-50.21-14.08-75.49c-4.27-25.29-12.1-54.63-31.74-71.31" style="fill: rgb(149, 81, 81);"/>
          </g>
          <g>
            <path class="st4" d="M1496.31,2.67c-12.29,27.99-10.43,61.31-5.85,91.54s14.91,59.27,25.52,87.96&#10;&#9;&#9;&#9;&#9;&#9;&#9;c8.6,23.24,17.47,46.48,29.47,68.19c18.89,34.15,45.48,64.08,77.25,86.96c-13.51-21.21-27.14-42.68-35.25-66.44&#10;&#9;&#9;&#9;&#9;&#9;&#9;c-7.13-20.91-9.79-43.01-13.69-64.74c-12.39-68.95-34.47-147.66-71.33-207.41" style="fill: rgb(149, 81, 81);"/>
          </g>
          <g>
            <path class="st4" d="M1606.54-45.33c-13.65,25.63-10.52,57.44,0.82,84.19c11.34,26.75,30.01,49.67,47.71,72.78&#10;&#9;&#9;&#9;&#9;&#9;&#9;c19.22,25.08,37.57,50.82,55.01,77.16c-19.28-34.05-12.12-77.43-28.04-113.14c-9.7-21.75-27.17-38.94-42.85-56.94&#10;&#9;&#9;&#9;&#9;&#9;&#9;c-15.67-18-28.22-38.23-24.66-65.1" style="fill: rgb(149, 81, 81);"/>
          </g>
          <g>
            <path class="st4" d="M1648.85-55.73c-7.91,21.4-0.42,45.66,11.7,65.06c12.12,19.39,28.64,35.75,41.24,54.84&#10;&#9;&#9;&#9;&#9;&#9;&#9;c17.15,25.97,26.68,56.84,27.11,87.88c8.28-37.87,5.56-78.06-7.76-114.52c-13.32-36.46-37.18-69.07-68.01-92.91" style="fill: rgb(149, 81, 81);"/>
          </g>
          <g>
            <path class="st4" d="M1660.79-59.05c-4.02-39.13-34.92-64.72-61.74-89.43c-28.04-25.83-64.04-41.11-99.26-55.9&#10;&#9;&#9;&#9;&#9;&#9;&#9;c35.09,16.36,78.12,7.43,113.08,24.07c31.57,15.02,50.62,48.64,57.85,82.63c1.56,7.32,3.68,14.74,2.9,22.18&#10;&#9;&#9;&#9;&#9;&#9;&#9;c-0.82,7.82-0.43,14.11-12.92,18.58" style="fill: rgb(149, 81, 81);"/>
          </g>
          <g>
            <path class="st4" d="M1620.16-49.18c-16.95-40.4-48.93-74.4-88.37-93.94c-39.44-19.55-86.01-24.47-128.67-13.61&#10;&#9;&#9;&#9;&#9;&#9;&#9;c25.46-3.65,51.4,4.75,73.7,17.52c22.3,12.78,41.77,29.8,62.2,45.37c23.96,18.25,49.38,34.6,75.96,48.82&#10;&#9;&#9;&#9;&#9;&#9;&#9;c-0.83-2.47,5.75-2.22,4.92-4.69" style="fill: rgb(149, 81, 81);"/>
          </g>
          <g>
            <path class="st4" d="M1575.29-36.03c-34.78-28.46-82.9-51.72-128.13-57.28c-45.24-5.55-92.12,3.09-132.29,24.39&#10;&#9;&#9;&#9;&#9;&#9;&#9;c25.73-3.9,51.56-7.8,77.59-8.09c26.03-0.29,52.45,3.16,76.35,13.44c19.5,8.39,37.13,21.21,57.62,26.81&#10;&#9;&#9;&#9;&#9;&#9;&#9;c13.52,3.7,27.66,7.55,41.34,4.53c-2.58-0.02,10.47-3.74,7.89-3.76" style="fill: rgb(149, 81, 81);"/>
          </g>
          <g>
            <path class="st4" d="M1438.66,37.32c-21.71,8.35-46.1,4.13-68.76-1.26s-45.99-11.9-68.9-7.77&#10;&#9;&#9;&#9;&#9;&#9;&#9;c-41.05,7.4-69.7,46.62-110.02,57.27c10.12-3.17,18.43-10.45,25.31-18.46c6.88-8.01,12.66-16.92,19.71-24.79&#10;&#9;&#9;&#9;&#9;&#9;&#9;c20.39-22.75,50.45-35.39,80.86-39.51c30.41-4.11,61.37-0.37,91.52,5.4c7.6,1.45,15.37,3.11,21.87,7.28&#10;&#9;&#9;&#9;&#9;&#9;&#9;c6.5,4.17,11.56,11.42,10.92,19.07" style="fill: rgb(149, 81, 81);"/>
          </g>
          <g>
            <path class="st4" d="M1389.51,76.12c-14.82-2.86-29.64-5.73-44.45-8.59c-17.32-3.35-35.33-6.68-52.4-2.32&#10;&#9;&#9;&#9;&#9;&#9;&#9;c-13.85,3.54-25.88,11.87-37.58,20.04c-25.8,18.02-51.6,36.04-77.39,54.06c22.03-9.03,44.07-18.06,66.1-27.09&#10;&#9;&#9;&#9;&#9;&#9;&#9;c11.03-4.52,22.13-9.06,33.79-11.59c18.52-4.01,37.75-2.79,56.61-4.76c18.85-1.96,38.61-7.94,50.42-22.65" style="fill: rgb(149, 81, 81);"/>
          </g>
          <g>
            <path class="st4" d="M1225.74,274.07c12.51-24.06,25.94-47.59,41.35-69.98c15.71-22.83,32.92-44.49,51.23-65.29&#10;&#9;&#9;&#9;&#9;&#9;&#9;c35.43-40.24,76.54-75.7,121.14-105.6c45.66-30.6,94.93-55.69,147.13-73.43c52.06-17.68,106.34-28.8,161.14-32.98&#10;&#9;&#9;&#9;&#9;&#9;&#9;c59.13-4.51,118.89-1.13,177.03,10.7c7.17,1.46,14.31,3.12,21.45,4.73c2.64,0.6,2.22,4.8-0.45,4.2&#10;&#9;&#9;&#9;&#9;&#9;&#9;c-28.73-6.49-57.76-12.06-87.16-14.51c-29.48-2.46-58.95-3.57-88.52-2.26c-54.99,2.43-109.35,11.76-162.04,27.63&#10;&#9;&#9;&#9;&#9;&#9;&#9;c-52.12,15.7-100.95,38.87-147.29,67.1c-46.28,28.19-88.59,63.44-125.83,102.55c-9.21,9.67-18.02,19.71-26.71,29.83&#10;&#9;&#9;&#9;&#9;&#9;&#9;c-8.99,10.46-17.03,21.72-25.41,32.65c-16.46,21.46-30.38,44.87-43.7,68.32c-3.31,5.83-6.3,11.93-9.4,17.89&#10;&#9;&#9;&#9;&#9;&#9;&#9;C1228.47,278.01,1224.49,276.49,1225.74,274.07L1225.74,274.07z" style="fill: rgb(149, 81, 81);"/>
          </g>
        </g>
      </g>
      <g transform="matrix(1.1671, 0, 0, 0.99683, -510.915314, 111.470322)" style="">
        <g>
          <path class="st3" d="M1623.85,502.07c-11.37-13.32-24.63,6.02-23.23,17.91c-1.21,19.32,18.84,23.25,25.63,5.44&#10;&#9;&#9;&#9;&#9;&#9;C1628.94,518.54,1629.54,508.06,1623.85,502.07z M1614.24,525.98c0,0,0-0.01-0.01-0.01&#10;&#9;&#9;&#9;&#9;&#9;C1614.51,526.21,1614.39,526.13,1614.24,525.98z M1613.74,523.6C1613.94,524.49,1613.81,524.1,1613.74,523.6L1613.74,523.6z&#10;&#9;&#9;&#9;&#9;&#9; M1614.81,517.29c-0.25,1.03-0.59,1.91-1,2.86c0.14-2.26,0.43-4.54,1.35-6.61C1615.09,515.31,1615.03,515.93,1614.81,517.29z&#10;&#9;&#9;&#9;&#9;&#9; M1613.38,521.11c-0.2,0.34-0.56,0.66,0.04-0.08C1613.41,521.06,1613.4,521.08,1613.38,521.11z M1614.23,508.96&#10;&#9;&#9;&#9;&#9;&#9;c0.18,0.45,0.1,0.83-0.08-0.27C1614.18,508.78,1614.2,508.87,1614.23,508.96z M1610.88,524.34c0.08-0.16,0.16-0.28,0.22-0.34&#10;&#9;&#9;&#9;&#9;&#9;C1611.01,524.11,1610.95,524.23,1610.88,524.34z M1615.74,512.29C1615.5,512.94,1615.56,512.68,1615.74,512.29L1615.74,512.29z" style="fill: rgb(255, 213, 213);"/>
          <path class="st3" d="M1649.38,671.32c3.52-8.18-9.95-19.81-14.59-9.61c-9.11-1.99-14.85,11.7-18.47,18.33&#10;&#9;&#9;&#9;&#9;&#9;C1614.78,699.86,1646.74,680.45,1649.38,671.32z" style="fill: rgb(255, 213, 213);"/>
          <path class="st3" d="M1637.54,426.93c-5.43-4.55-10.34,8.83-10.29,12.86C1632.53,451.76,1647.77,430.41,1637.54,426.93z&#10;&#9;&#9;&#9;&#9;&#9; M1631.08,437.43c-0.03,0.02-0.07,0.02-0.11,0.02C1631,437.44,1631.04,437.44,1631.08,437.43z" style="fill: rgb(255, 213, 213);"/>
          <path class="st3" d="M1681.55,669.58c7.59-3.08,13.69-9.79,15.9-17.69c2-23.28-23.44-3.23-28.53,5.96&#10;&#9;&#9;&#9;&#9;&#9;C1665.52,665.23,1674.64,672.73,1681.55,669.58z" style="fill: rgb(255, 213, 213);"/>
          <path class="st3" d="M1673.87,626.59c7.74-1.58,26.12-15.51,11.53-20.87C1670.02,586.95,1650.6,624.78,1673.87,626.59z" style="fill: rgb(255, 213, 213);"/>
          <path class="st3" d="M1642.03,572.09c13.52,5.15,25.63-3.7,31.69-15.03c7.68-2.46,3.32-13.07-3.73-12.25&#10;&#9;&#9;&#9;&#9;&#9;C1658,542.03,1626.44,562.1,1642.03,572.09z M1650.79,568.32c0.1-0.18,0.24-0.33,0.35-0.52&#10;&#9;&#9;&#9;&#9;&#9;C1651.32,567.6,1651.36,567.68,1650.79,568.32z M1654.61,563.44c0.01-0.01,0.02-0.02,0.03-0.03&#10;&#9;&#9;&#9;&#9;&#9;C1653.8,564.53,1654.25,563.76,1654.61,563.44z M1656.7,557.42c-0.1,0.1-0.18,0.18-0.29,0.28&#10;&#9;&#9;&#9;&#9;&#9;C1656.6,557.45,1656.76,557.33,1656.7,557.42z" style="fill: rgb(255, 213, 213);"/>
          <path class="st3" d="M1671.47,769.22c14.82,0.34,26.74-29.42,6.81-25.21c-9.79-3.01-10.39,10.54-14.31,16.33&#10;&#9;&#9;&#9;&#9;&#9;C1662.12,764.4,1666.74,769.94,1671.47,769.22z" style="fill: rgb(255, 213, 213);"/>
          <path class="st3" d="M1785.01,857.65c4.8-4.31,1.44-12.75-2.86-16.39c-12.8-8.83-40.71,14.54-24.61,25.83&#10;&#9;&#9;&#9;&#9;&#9;C1765.4,871.89,1777.66,861.22,1785.01,857.65z" style="fill: rgb(255, 213, 213);"/>
          <path class="st3" d="M1762.38,664.43c3.04-2.62,3.86-8.89,0.72-11.7c-3.75-2.09-10.22,0.43-11.82,4.38&#10;&#9;&#9;&#9;&#9;&#9;C1748.83,663.42,1757.46,668.67,1762.38,664.43z" style="fill: rgb(255, 213, 213);"/>
          <path class="st3" d="M1815.29,730.79c-1.21-0.15-2.35,0.01-3.37,0.39c-17.22-0.57-25.18,23.81-5.53,27.63&#10;&#9;&#9;&#9;&#9;&#9;C1817.87,761.53,1828.36,733.44,1815.29,730.79z" style="fill: rgb(255, 213, 213);"/>
          <path class="st3" d="M1758.21,769.86c-14.85-3.65-12.86,21.79-1.75,25.08C1771.11,796.72,1770.35,773.59,1758.21,769.86z" style="fill: rgb(255, 213, 213);"/>
          <path class="st3" d="M1878.16,791.7c-0.52-0.23-1.12-0.37-1.73-0.47c-3.14-2.75-8.7-2.4-10.39,1.74&#10;&#9;&#9;&#9;&#9;&#9;c-2.05,4.86-6.54,10-3.67,15.45C1872.45,824.14,1893.21,801.1,1878.16,791.7z" style="fill: rgb(255, 213, 213);"/>
          <path class="st3" d="M1725.76,712.53c6.19-4.08,4.48-18.63-4.53-16.02C1707.33,694.28,1714.29,721.24,1725.76,712.53z" style="fill: rgb(255, 213, 213);"/>
          <path class="st3" d="M1797.03,559.98c10.38,4.98,23.57-8.71,16.3-18.16c-1.99-8.6-14.03-6.19-19.76-3.08&#10;&#9;&#9;&#9;&#9;&#9;C1784.71,543.78,1787.41,557.33,1797.03,559.98z" style="fill: rgb(255, 213, 213);"/>
          <path class="st3" d="M1851.1,862.32c-5.63-2.28-10.63,0.16-13.5,4.75c-10.22,2.36-7.46,16.42-10.25,24.28&#10;&#9;&#9;&#9;&#9;&#9;c-0.3,5.87,4.89,10.99,10.69,11.12C1851.54,902.3,1866.78,869.04,1851.1,862.32z" style="fill: rgb(255, 213, 213);"/>
          <path class="st3" d="M1838.15,819.5c-6.85-7.19-26.35,0.89-22.82,11.36C1822.28,842.63,1845.74,832.32,1838.15,819.5z" style="fill: rgb(255, 213, 213);"/>
          <path class="st3" d="M1861.64,692.86c4.89-16.99-19.13-20.15-22.98-4.19C1833.23,704.49,1858.04,705.75,1861.64,692.86z" style="fill: rgb(255, 213, 213);"/>
          <path class="st3" d="M1785.76,512.74c11.19,9.62,37.54-17.98,17.86-21.68c-5.66-3.37-11.13,2.51-16.22,4.55&#10;&#9;&#9;&#9;&#9;&#9;C1780.65,498.79,1778.94,508.5,1785.76,512.74z" style="fill: rgb(255, 213, 213);"/>
          <path class="st3" d="M1909.04,878.22c-1.42-7.23-11.94-13.34-17.55-6.77c-5.73,1.27-5.97,15.35-2.34,18.79&#10;&#9;&#9;&#9;&#9;&#9;C1896.54,896.06,1911.83,888.05,1909.04,878.22z" style="fill: rgb(255, 213, 213);"/>
          <path class="st3" d="M1917.55,633.8c3.89-3.46,10.28-8.53,7.72-14.33c-1.47-3.11-5.88-5.1-9.04-3.55&#10;&#9;&#9;&#9;&#9;&#9;c-8.57-2.7-22.06,5.03-21.23,14.77C1897.39,641.31,1911.17,639.64,1917.55,633.8z" style="fill: rgb(255, 213, 213);"/>
          <path class="st3" d="M1809.74,596.56c-10.91,3.22-15.79,16.28-10.55,26.65c11.24,18.02,39.78-32.43,14.96-26.59&#10;&#9;&#9;&#9;&#9;&#9;C1812.75,596.17,1811.23,596.12,1809.74,596.56z M1811.1,611.76c0.04-0.09,0.09-0.18,0.14-0.25c-0.09,0.19-0.17,0.34-0.22,0.43&#10;&#9;&#9;&#9;&#9;&#9;C1811.05,611.88,1811.07,611.82,1811.1,611.76z" style="fill: rgb(255, 213, 213);"/>
          <path class="st3" d="M1724.17,475.35c15.58,19.57,40.21-16.21,16.69-13.93C1731.55,455.52,1715.59,464.38,1724.17,475.35z" style="fill: rgb(255, 213, 213);"/>
          <path class="st3" d="M1738.07,550.48c22.1-1.73,16.31-35.4-4.85-25.86C1712.12,522.36,1719.01,552.45,1738.07,550.48z" style="fill: rgb(255, 213, 213);"/>
          <path class="st3" d="M1931.44,944.92c-9.35-2.68-24.13,25.12-7.96,21.66C1936.9,972.71,1944.76,948.82,1931.44,944.92z" style="fill: rgb(255, 213, 213);"/>
          <path class="st3" d="M1746.73,588.77c-4.94-16.56-25.43,2.63-21.94,13.85C1731.74,619.69,1751.15,600.79,1746.73,588.77z" style="fill: rgb(255, 213, 213);"/>
          <path class="st3" d="M1956.79,599.79c1.34-3.73-1.5-8.08-5.42-8.72c-8.14-7.83-20.37,4.43-21.35,12.92&#10;&#9;&#9;&#9;&#9;&#9;C1930.72,623.8,1954.57,613.97,1956.79,599.79z" style="fill: rgb(255, 213, 213);"/>
          <path class="st3" d="M1890.57,527.43c6.51,5.46,13.54-7.76,6.04-10.1C1891.21,514.4,1885.06,523.66,1890.57,527.43z" style="fill: rgb(255, 213, 213);"/>
        </g>
      </g>
    </g>
  </g>
</svg>